<svg xmlns="http://www.w3.org/2000/svg" viewBox="0 0 500 499.96"><g id="Layer_2" data-name="Layer 2"><g id="Layer_1-2" data-name="Layer 1"><path d="M478.71,500H21.29A21.28,21.28,0,0,1,0,478.66V21.29A21.27,21.27,0,0,1,21.29,0H478.71A21.27,21.27,0,0,1,500,21.29V478.66A21.28,21.28,0,0,1,478.71,500ZM42.58,457.37H457.42V42.58H42.58V457.37Z"/><path d="M411.21,421.84H88.75A10.66,10.66,0,0,1,78.1,411.19V88.77A10.65,10.65,0,0,1,88.75,78.12H411.21a10.63,10.63,0,0,1,10.65,10.65V411.19a10.63,10.63,0,0,1-10.65,10.65ZM99.39,400.55H400.56V99.41H99.39V400.55Z"/><path d="M88.75,209.41a21.28,21.28,0,0,1-21.3-21.29V161.88a21.3,21.3,0,0,1,42.59,0v26.24a21.27,21.27,0,0,1-21.29,21.29Z"/><path d="M88.75,359.39a21.28,21.28,0,0,1-21.3-21.29V311.84a21.3,21.3,0,0,1,42.59,0V338.1a21.27,21.27,0,0,1-21.29,21.29Z"/><path d="M250,314.06A64.09,64.09,0,1,1,314.06,250,64.18,64.18,0,0,1,250,314.06Zm0-106.87A42.79,42.79,0,1,0,292.77,250,42.84,42.84,0,0,0,250,207.19Z"/><path d="M209.72,220.33a10.57,10.57,0,0,1-7.52-3.12l-14.89-14.89a10.64,10.64,0,0,1,15.05-15l14.89,14.88a10.65,10.65,0,0,1-7.53,18.18Z"/><path d="M305.17,315.81a10.57,10.57,0,0,1-7.53-3.12l-17.55-17.57a10.64,10.64,0,0,1,15.05-15.05l17.55,17.57a10.65,10.65,0,0,1-7.52,18.17Z"/><path d="M290.28,220.35a10.65,10.65,0,0,1-7.53-18.17l14.89-14.89a10.64,10.64,0,0,1,15.05,15.05L297.8,217.23a10.57,10.57,0,0,1-7.52,3.12Z"/><path d="M194.79,315.81a10.65,10.65,0,0,1-7.52-18.17l17.59-17.55a10.64,10.64,0,0,1,15,15.05l-17.59,17.55a10.57,10.57,0,0,1-7.53,3.12Z"/><path d="M250,203.63A10.63,10.63,0,0,1,239.37,193v-21a10.65,10.65,0,0,1,21.3,0v21A10.66,10.66,0,0,1,250,203.63Z"/><path d="M250,338.66h0A10.63,10.63,0,0,1,239.33,328l0-24.83A10.65,10.65,0,0,1,250,292.54h0a10.65,10.65,0,0,1,10.65,10.67l0,24.83A10.65,10.65,0,0,1,250,338.66Z"/><path d="M328,260.63H307a10.65,10.65,0,0,1,0-21.3H328a10.65,10.65,0,0,1,0,21.3Z"/><path d="M196.83,260.63H172a10.65,10.65,0,0,1,0-21.3h24.87a10.65,10.65,0,0,1,0,21.3Z"/></g></g></svg>